# xmcd CD database file
#
# Track frame offsets:
#	150
#	20147
#	41235
#	61805
#	80935
#	96990
#	116072
#	136012
#	154895
#	170357
#
# Disc length: 2514 seconds
#
# Revision: 3
# Processed by: cddbd v1.5.2PL0 Copyright (c) Steve Scherf et al.
# Submitted via: CDex 1.51
#
DISCID=8909d00a
DTITLE=Reba Mcentire - Starting Over
DYEAR=1900
DGENRE=Country
TTITLE0=Talking In Your Sleep
TTITLE1=Please Come To Boston
TTITLE2=On My Own
TTITLE3=I Won't Mention It Again
TTITLE4=You're No Good
TTITLE5=Ring On Her Finger, Time On Her Hands
TTITLE6=Five Hundred Miles Away From Home
TTITLE7=Starting Over Again
TTITLE8=You Keep Me Hangin' On
TTITLE9=By The Time I Get To Phoenix
EXTD=
EXTT0=
EXTT1=
EXTT2=
EXTT3=
EXTT4=
EXTT5=
EXTT6=
EXTT7=
EXTT8=
EXTT9=
PLAYORDER=
